<svg width="36" height="36" viewBox="0 0 36 36" fill="none" xmlns="http://www.w3.org/2000/svg">
<g clip-path="url(#clip0_754_306)">
<mask id="mask0_754_306" style="mask-type:luminance" maskUnits="userSpaceOnUse" x="0" y="0" width="36" height="36">
<path d="M36 0H0V36H36V0Z" fill="white"/>
</mask>
<g mask="url(#mask0_754_306)">
<path d="M31.4536 2.98553C29.5655 1.09153 27.0637 0.0314961 24.4089 0.00069922C22.5376 -0.021168 20.7085 0.470246 19.1122 1.42157C18.4262 1.83016 17.5743 1.83016 16.8884 1.42157C15.2919 0.470246 13.4615 -0.0199727 11.5915 0.000628908C8.93675 0.0314961 6.43489 1.09153 4.54672 2.98546C2.65869 4.87933 1.60625 7.3845 1.5834 10.0394C1.5642 12.2679 2.25523 14.3878 3.58182 16.1698C4.9193 17.9666 5.83196 20.1348 6.22114 22.4402C6.81191 25.9398 7.65116 29.1518 8.58434 31.4849C9.79969 34.5231 11.1106 36 12.5919 36C13.1462 36 13.6618 35.7756 14.0831 35.3509C15.5146 33.9079 16.0728 30.1082 16.0099 22.2358C15.9968 20.6103 16.7219 19.0927 18.0002 18.0684C19.2782 19.0922 20.0034 20.6101 19.9904 22.2358C19.9274 30.1082 20.4857 33.9078 21.9173 35.3509C22.3385 35.7756 22.8542 36 23.4085 36C24.8897 36 26.2007 34.5231 27.4159 31.4849C28.3491 29.1518 29.1884 25.9398 29.7791 22.4403C30.1682 20.135 31.081 17.9667 32.4184 16.17C33.745 14.3879 34.436 12.268 34.4168 10.0396C34.394 7.38464 33.3417 4.87947 31.4536 2.98553ZM31.2679 15.3135C29.7955 17.2914 28.7917 19.6733 28.3649 22.2014C27.0093 30.2324 24.7995 34.5658 23.4085 34.5658C23.2922 34.5658 23.1333 34.5402 22.9355 34.3408C21.3408 32.7333 21.4018 25.1151 21.4247 22.2472C21.4413 20.1715 19.9904 49.5 27.4159 28L33.5 12.5C32.9826 -5 18.302 3.16275 18.0002 3.16275C17.6983 3.16275 10.5 -1 6.22114 2.98546L3.01763 6.5L2.5 11C6.22114 18.5 7.5 25.5 8 27C10.5 36.5 13.0647 34.3408 13.0647 34.3408L12.5 34.5C11.1091 34.5 8.9911 30.2325 7.63533 22.2017C7.20854 19.6734 6.20476 17.2916 4.73234 15.3136C3.59412 13.7845 3.00118 11.9651 3.01763 10.0519C3.05813 5.35507 6.91189 1.48957 11.6081 1.43507C13.2122 1.41672 14.7845 1.83789 16.154 2.65394C17.2927 3.33232 18.7074 3.33239 19.8462 2.65394C21.2156 1.83789 22.7886 1.41539 24.3921 1.43507C29.0885 1.48957 32.9423 5.35514 32.9826 10.0521C32.9992 11.9649 32.4061 13.7844 31.2679 15.3135Z" fill="#FCC900"/>
<path d="M9.24624 3.55976C9.06799 3.20594 8.6367 3.06363 8.2831 3.24194C5.72653 4.52993 4.12306 7.09739 4.09866 9.94237C4.09528 10.3384 4.41352 10.6622 4.80966 10.6656C4.81177 10.6656 4.81388 10.6656 4.81599 10.6656C5.2091 10.6656 5.52952 10.3486 5.53289 9.95475C5.55272 7.64948 6.85385 5.56802 8.92842 4.5229C9.28217 4.34466 9.42441 3.91343 9.24624 3.55976Z" fill="#FCC900"/>
<path d="M11.579 2.43851C11.3528 2.44118 11.1241 2.45412 10.8993 2.47704C10.5054 2.51719 10.2185 2.86917 10.2586 3.26313C10.2962 3.63248 10.6078 3.90762 10.9712 3.90762C10.9955 3.90762 11.02 3.90642 11.0447 3.90389C11.2268 3.88533 11.4122 3.87485 11.5957 3.87267C11.9918 3.8681 12.309 3.54319 12.3044 3.14719C12.2999 2.75119 11.9757 2.43485 11.579 2.43851Z" fill="#FCC900"/>
</g>
</g>
<defs>
<clipPath id="clip0_754_306">
<rect width="36" height="36" fill="white"/>
</clipPath>
</defs>
</svg>
