<?xml version="1.0" encoding="utf-8"?>
<!-- Generator: Adobe Illustrator 17.0.0, SVG Export Plug-In . SVG Version: 6.00 Build 0)  -->
<!DOCTYPE svg PUBLIC "-//W3C//DTD SVG 1.1//EN" "http://www.w3.org/Graphics/SVG/1.1/DTD/svg11.dtd" [
	<!ENTITY ns_flows "http://ns.adobe.com/Flows/1.0/">
	<!ENTITY ns_extend "http://ns.adobe.com/Extensibility/1.0/">
	<!ENTITY ns_ai "http://ns.adobe.com/AdobeIllustrator/10.0/">
	<!ENTITY ns_graphs "http://ns.adobe.com/Graphs/1.0/">
	<!ENTITY ns_vars "http://ns.adobe.com/Variables/1.0/">
	<!ENTITY ns_imrep "http://ns.adobe.com/ImageReplacement/1.0/">
	<!ENTITY ns_sfw "http://ns.adobe.com/SaveForWeb/1.0/">
	<!ENTITY ns_custom "http://ns.adobe.com/GenericCustomNamespace/1.0/">
	<!ENTITY ns_adobe_xpath "http://ns.adobe.com/XPath/1.0/">
]>
<svg version="1.1" id="Layer_1" xmlns:x="&ns_extend;" xmlns:i="&ns_ai;" xmlns:graph="&ns_graphs;"
	 xmlns="http://www.w3.org/2000/svg" xmlns:xlink="http://www.w3.org/1999/xlink" xmlns:a="http://ns.adobe.com/AdobeSVGViewerExtensions/3.0/"
	 x="0px" y="0px" width="2047.7px" height="2048px" viewBox="0 0 2047.7 2048" style="enable-background:new 0 0 2047.7 2048;"
	 xml:space="preserve">
<style type="text/css">
	.st0{clip-path:url(#SVGID_2_);}
	.st1{fill:none;stroke:#7420CE;stroke-width:0.5;stroke-miterlimit:10;}
	.st2{opacity:0.78;adobe-blending-mode:overlay;}
	.st3{adobe-blending-mode:normal;}
	.st4{fill:url(#SVGID_3_);}
	.st5{fill:url(#SVGID_4_);}
	.st6{fill:url(#SVGID_5_);}
	.st7{fill:url(#SVGID_6_);}
	.st8{fill:url(#SVGID_7_);}
	.st9{fill:#DEF2FB;}
	.st10{fill:url(#SVGID_8_);}
	.st11{fill:url(#SVGID_9_);}
	.st12{fill:url(#SVGID_10_);}
	.st13{opacity:0.78;fill:url(#SVGID_11_);adobe-blending-mode:overlay;}
	.st14{fill:url(#SVGID_12_);}
	.st15{fill:#CFCFFF;}
	.st16{opacity:0.78;fill:url(#SVGID_13_);adobe-blending-mode:overlay;}
	.st17{opacity:0.78;fill:url(#SVGID_14_);adobe-blending-mode:overlay;}
	.st18{opacity:0.78;fill:url(#SVGID_15_);adobe-blending-mode:overlay;}
	.st19{opacity:0.78;fill:url(#SVGID_16_);adobe-blending-mode:overlay;}
	.st20{fill:url(#SVGID_17_);}
	.st21{fill:url(#SVGID_18_);}
	.st22{fill:url(#SVGID_19_);}
	.st23{fill:url(#SVGID_20_);}
	.st24{fill:url(#SVGID_21_);}
	.st25{fill:url(#SVGID_22_);}
	.st26{fill:url(#SVGID_23_);}
	.st27{fill:#1A2E35;}
	.st28{fill:url(#SVGID_24_);}
	.st29{fill:url(#SVGID_25_);}
	.st30{fill:url(#SVGID_26_);}
	.st31{fill:url(#SVGID_27_);}
	.st32{fill:url(#SVGID_28_);}
	.st33{fill:url(#SVGID_29_);}
	.st34{opacity:0.4;}
	.st35{fill:url(#SVGID_30_);}
	.st36{fill:url(#SVGID_31_);}
	.st37{opacity:0.5;}
	.st38{fill:url(#SVGID_32_);}
	.st39{fill:url(#SVGID_33_);}
	.st40{opacity:0.6;}
	.st41{fill:url(#SVGID_34_);}
	.st42{fill:url(#SVGID_35_);}
	.st43{fill:url(#SVGID_36_);}
	.st44{fill:url(#SVGID_37_);}
	.st45{fill:url(#SVGID_38_);}
	.st46{fill:url(#SVGID_39_);}
	.st47{fill:url(#SVGID_40_);}
	.st48{fill:url(#SVGID_41_);}
	.st49{fill:#BFE8F7;}
	.st50{fill:url(#SVGID_42_);}
	.st51{fill:none;stroke:url(#SVGID_43_);stroke-width:14;stroke-miterlimit:10;stroke-dasharray:20;}
	.st52{fill:none;stroke:url(#SVGID_44_);stroke-width:14;stroke-miterlimit:10;stroke-dasharray:20;}
	.st53{opacity:0.78;fill:url(#SVGID_45_);adobe-blending-mode:overlay;}
	.st54{fill:url(#SVGID_46_);}
	.st55{opacity:0.78;fill:url(#SVGID_47_);adobe-blending-mode:overlay;}
	.st56{fill:url(#SVGID_48_);}
	.st57{opacity:0.78;fill:url(#SVGID_49_);adobe-blending-mode:overlay;}
	.st58{fill:url(#SVGID_50_);}
	.st59{opacity:0.78;fill:url(#SVGID_51_);adobe-blending-mode:overlay;}
	.st60{fill:url(#SVGID_52_);}
	.st61{opacity:0.78;fill:url(#SVGID_53_);adobe-blending-mode:overlay;}
	.st62{fill:url(#SVGID_54_);}
	.st63{fill:#313640;}
	.st64{fill:url(#SVGID_55_);}
	.st65{fill:#310051;}
	.st66{fill:#180449;}
	.st67{fill:url(#SVGID_56_);}
	.st68{fill:url(#SVGID_57_);}
	.st69{fill:url(#SVGID_58_);}
	.st70{fill:url(#SVGID_59_);}
</style>
<metadata>
	<sfw  xmlns="&ns_sfw;">
		<slices></slices>
		<sliceSourceBounds  height="2406.1" width="4870.5" x="-2182.4" y="-1287.4" bottomLeftOrigin="true"></sliceSourceBounds>
	</sfw>
</metadata>
<g>
	<g>
		<defs>
			<rect id="SVGID_1_" x="-6.4" y="821.8" width="2054.1" height="1250.6"/>
		</defs>
		<clipPath id="SVGID_2_">
			<use xlink:href="#SVGID_1_"  style="overflow:visible;"/>
		</clipPath>
		<g class="st0">
			<g>
				<polygon class="st1" points="456.2,1353 268.1,1353 335.7,1304.2 506.9,1304.2 				"/>
				<polygon class="st1" points="644.4,1353 456.2,1353 506.9,1304.2 678.2,1304.2 				"/>
				<polygon class="st1" points="832.5,1353 644.4,1353 678.2,1304.2 849.4,1304.2 				"/>
				<polygon class="st1" points="1020.6,1353 832.5,1353 849.4,1304.2 1020.6,1304.2 				"/>
				<polygon class="st1" points="1208.8,1353 1020.6,1353 1020.6,1304.2 1191.9,1304.2 				"/>
				<polygon class="st1" points="1396.9,1353 1208.8,1353 1191.9,1304.2 1363.1,1304.2 				"/>
				<polygon class="st1" points="1585.1,1353 1396.9,1353 1363.1,1304.2 1534.4,1304.2 				"/>
				<polygon class="st1" points="1773.2,1353 1585.1,1353 1534.4,1304.2 1705.6,1304.2 				"/>
			</g>
			<g>
				<polygon class="st1" points="394.4,1412.5 185.7,1412.5 268.1,1353 456.2,1353 				"/>
				<polygon class="st1" points="603.2,1412.5 394.4,1412.5 456.2,1353 644.4,1353 				"/>
				<polygon class="st1" points="811.9,1412.5 603.2,1412.5 644.4,1353 832.5,1353 				"/>
				<polygon class="st1" points="1020.6,1412.5 811.9,1412.5 832.5,1353 1020.6,1353 				"/>
				<polygon class="st1" points="1229.4,1412.5 1020.6,1412.5 1020.6,1353 1208.8,1353 				"/>
				<polygon class="st1" points="1438.1,1412.5 1229.4,1412.5 1208.8,1353 1396.9,1353 				"/>
				<polygon class="st1" points="1646.9,1412.5 1438.1,1412.5 1396.9,1353 1585.1,1353 				"/>
				<polygon class="st1" points="1855.6,1412.5 1646.9,1412.5 1585.1,1353 1773.2,1353 				"/>
			</g>
			<g>
				<polygon class="st1" points="317.4,1486.6 83,1486.6 185.7,1412.5 394.4,1412.5 				"/>
				<polygon class="st1" points="551.8,1486.6 317.4,1486.6 394.4,1412.5 603.2,1412.5 				"/>
				<polygon class="st1" points="786.2,1486.6 551.8,1486.6 603.2,1412.5 811.9,1412.5 				"/>
				<polygon class="st1" points="1020.6,1486.6 786.2,1486.6 811.9,1412.5 1020.6,1412.5 				"/>
				<polygon class="st1" points="1255.1,1486.6 1020.6,1486.6 1020.6,1412.5 1229.4,1412.5 				"/>
				<polygon class="st1" points="1489.5,1486.6 1255.1,1486.6 1229.4,1412.5 1438.1,1412.5 				"/>
				<polygon class="st1" points="1723.9,1486.6 1489.5,1486.6 1438.1,1412.5 1646.9,1412.5 				"/>
				<polygon class="st1" points="1958.3,1486.6 1723.9,1486.6 1646.9,1412.5 1855.6,1412.5 				"/>
			</g>
			<g>
				<polygon class="st1" points="218.8,1581.5 -48.5,1581.5 83,1486.6 317.4,1486.6 				"/>
				<polygon class="st1" points="486.1,1581.5 218.8,1581.5 317.4,1486.6 551.8,1486.6 				"/>
				<polygon class="st1" points="753.4,1581.5 486.1,1581.5 551.8,1486.6 786.2,1486.6 				"/>
				<polygon class="st1" points="1020.6,1581.5 753.4,1581.5 786.2,1486.6 1020.6,1486.6 				"/>
				<polygon class="st1" points="1287.9,1581.5 1020.6,1581.5 1020.6,1486.6 1255.1,1486.6 				"/>
				<polygon class="st1" points="1555.2,1581.5 1287.9,1581.5 1255.1,1486.6 1489.5,1486.6 				"/>
				<polygon class="st1" points="1822.5,1581.5 1555.2,1581.5 1489.5,1486.6 1723.9,1486.6 				"/>
				<polygon class="st1" points="2089.8,1581.5 1822.5,1581.5 1723.9,1486.6 1958.3,1486.6 				"/>
			</g>
			<g>
				<polygon class="st1" points="88.1,1707.3 -222.8,1707.3 -48.5,1581.5 218.8,1581.5 				"/>
				<polygon class="st1" points="398.9,1707.3 88.1,1707.3 218.8,1581.5 486.1,1581.5 				"/>
				<polygon class="st1" points="709.8,1707.3 398.9,1707.3 486.1,1581.5 753.4,1581.5 				"/>
				<polygon class="st1" points="1020.6,1707.3 709.8,1707.3 753.4,1581.5 1020.6,1581.5 				"/>
				<polygon class="st1" points="1331.5,1707.3 1020.6,1707.3 1020.6,1581.5 1287.9,1581.5 				"/>
				<polygon class="st1" points="1642.4,1707.3 1331.5,1707.3 1287.9,1581.5 1555.2,1581.5 				"/>
				<polygon class="st1" points="1953.2,1707.3 1642.4,1707.3 1555.2,1581.5 1822.5,1581.5 				"/>
				<polygon class="st1" points="2264.1,1707.3 1953.2,1707.3 1822.5,1581.5 2089.8,1581.5 				"/>
			</g>
			<g>
				<polygon class="st1" points="-93.7,1882.3 -465.1,1882.3 -222.8,1707.3 88.1,1707.3 				"/>
				<polygon class="st1" points="277.8,1882.3 -93.7,1882.3 88.1,1707.3 398.9,1707.3 				"/>
				<polygon class="st1" points="649.2,1882.3 277.8,1882.3 398.9,1707.3 709.8,1707.3 				"/>
				<polygon class="st1" points="1020.6,1882.3 649.2,1882.3 709.8,1707.3 1020.6,1707.3 				"/>
				<polygon class="st1" points="1392.1,1882.3 1020.6,1882.3 1020.6,1707.3 1331.5,1707.3 				"/>
				<polygon class="st1" points="1763.5,1882.3 1392.1,1882.3 1331.5,1707.3 1642.4,1707.3 				"/>
				<polygon class="st1" points="2135,1882.3 1763.5,1882.3 1642.4,1707.3 1953.2,1707.3 				"/>
				<polygon class="st1" points="2506.4,1882.3 2135,1882.3 1953.2,1707.3 2264.1,1707.3 				"/>
			</g>
			<g>
				<polygon class="st1" points="98,2141.8 -363.3,2141.8 -93.7,1882.3 277.8,1882.3 				"/>
				<polygon class="st1" points="559.3,2141.8 98,2141.8 277.8,1882.3 649.2,1882.3 				"/>
				<polygon class="st1" points="1020.6,2141.8 559.3,2141.8 649.2,1882.3 1020.6,1882.3 				"/>
				<polygon class="st1" points="1482,2141.8 1020.6,2141.8 1020.6,1882.3 1392.1,1882.3 				"/>
				<polygon class="st1" points="1943.3,2141.8 1482,2141.8 1392.1,1882.3 1763.5,1882.3 				"/>
				<polygon class="st1" points="2404.6,2141.8 1943.3,2141.8 1763.5,1882.3 2135,1882.3 				"/>
			</g>
		</g>
	</g>
	<g>
		<g class="st2">
			<g class="st3">
				<linearGradient id="SVGID_3_" gradientUnits="userSpaceOnUse" x1="1024.1768" y1="680.2926" x2="1844.5215" y2="680.2926">
					<stop  offset="0" style="stop-color:#FFFDFF;stop-opacity:0"/>
					<stop  offset="1" style="stop-color:#FFFFFF"/>
					<a:midPointStop  offset="0" style="stop-color:#FFFDFF;stop-opacity:0"/>
					<a:midPointStop  offset="0.5" style="stop-color:#FFFDFF;stop-opacity:0"/>
					<a:midPointStop  offset="1" style="stop-color:#FFFFFF"/>
				</linearGradient>
				<path class="st4" d="M1808.6,956h-748.5c-19.9,0-35.9-16.1-35.9-35.9V440.5c0-19.9,16.1-35.9,35.9-35.9h748.5
					c19.9,0,35.9,16.1,35.9,35.9v479.5C1844.5,939.9,1828.4,956,1808.6,956z"/>
			</g>
		</g>
		<g>
			<g>
				<g>
					<linearGradient id="SVGID_4_" gradientUnits="userSpaceOnUse" x1="1102.1388" y1="852.2452" x2="1137.8721" y2="852.2452">
						<stop  offset="0" style="stop-color:#FBB040"/>
						<stop  offset="1" style="stop-color:#ED5000"/>
						<a:midPointStop  offset="0" style="stop-color:#FBB040"/>
						<a:midPointStop  offset="0.5" style="stop-color:#FBB040"/>
						<a:midPointStop  offset="1" style="stop-color:#ED5000"/>
					</linearGradient>
					<rect x="1102.1" y="807.4" class="st5" width="35.7" height="89.7"/>
				</g>
			</g>
		</g>
		<g>
			<g>
				<g>
					<linearGradient id="SVGID_5_" gradientUnits="userSpaceOnUse" x1="1182.6608" y1="812.8685" x2="1218.3964" y2="812.8685">
						<stop  offset="0" style="stop-color:#5D0CA5"/>
						<stop  offset="1" style="stop-color:#9F20FF"/>
						<a:midPointStop  offset="0" style="stop-color:#5D0CA5"/>
						<a:midPointStop  offset="0.5" style="stop-color:#5D0CA5"/>
						<a:midPointStop  offset="1" style="stop-color:#9F20FF"/>
					</linearGradient>
					<rect x="1182.7" y="728.6" class="st6" width="35.7" height="168.5"/>
				</g>
			</g>
		</g>
		<g>
			<g>
				<g>
					<linearGradient id="SVGID_6_" gradientUnits="userSpaceOnUse" x1="1263.1849" y1="821.5784" x2="1298.9183" y2="821.5784">
						<stop  offset="0" style="stop-color:#FBB040"/>
						<stop  offset="1" style="stop-color:#ED5000"/>
						<a:midPointStop  offset="0" style="stop-color:#FBB040"/>
						<a:midPointStop  offset="0.5" style="stop-color:#FBB040"/>
						<a:midPointStop  offset="1" style="stop-color:#ED5000"/>
					</linearGradient>
					<rect x="1263.2" y="746.1" class="st7" width="35.7" height="151"/>
				</g>
			</g>
		</g>
		<g>
			<g>
				<g>
					<linearGradient id="SVGID_7_" gradientUnits="userSpaceOnUse" x1="1343.7078" y1="778.9382" x2="1379.4418" y2="778.9382">
						<stop  offset="0" style="stop-color:#5D0CA5"/>
						<stop  offset="1" style="stop-color:#9F20FF"/>
						<a:midPointStop  offset="0" style="stop-color:#5D0CA5"/>
						<a:midPointStop  offset="0.5" style="stop-color:#5D0CA5"/>
						<a:midPointStop  offset="1" style="stop-color:#9F20FF"/>
					</linearGradient>
					<rect x="1343.7" y="660.8" class="st8" width="35.7" height="236.3"/>
				</g>
			</g>
		</g>
		<g>
			<g>
				<g>
					<polygon class="st9" points="1398.4,921.8 1078.5,921.8 1078.5,611.7 1083.4,611.7 1083.4,916.9 1398.4,916.9 					"/>
				</g>
			</g>
		</g>
		<g>
			<g>
				<g>
					<polygon class="st9" points="1364.7,632 1341,609.3 1371.6,601.1 					"/>
				</g>
			</g>
		</g>
		<g>
			<g>
				<g>
					<rect x="1078.5" y="488" class="st9" width="706.9" height="14.7"/>
				</g>
			</g>
		</g>
		<linearGradient id="SVGID_8_" gradientUnits="userSpaceOnUse" x1="1024.176" y1="438.2881" x2="1844.5215" y2="438.2881">
			<stop  offset="0" style="stop-color:#01FFFF"/>
			<stop  offset="1" style="stop-color:#214FB3;stop-opacity:0"/>
			<a:midPointStop  offset="0" style="stop-color:#01FFFF"/>
			<a:midPointStop  offset="0.5" style="stop-color:#01FFFF"/>
			<a:midPointStop  offset="1" style="stop-color:#214FB3;stop-opacity:0"/>
		</linearGradient>
		<path class="st10" d="M1808.6,404.6h-748.5c-19.9,0-35.9,16.1-35.9,35.9V472h820.3v-31.5C1844.5,420.7,1828.4,404.6,1808.6,404.6z
			"/>
		<g>
			<g>
				<g>
					<polygon class="st9" points="1100.4,778.2 1097,774.4 1185,695.3 1266.6,713 1354.9,614.7 1358.8,618.1 1268.4,718.6 
						1186.5,700.8 					"/>
				</g>
			</g>
		</g>
		<g>
			<linearGradient id="SVGID_9_" gradientUnits="userSpaceOnUse" x1="1448.625" y1="737.1813" x2="1790.5815" y2="737.1813">
				<stop  offset="0" style="stop-color:#FFFDFF;stop-opacity:0"/>
				<stop  offset="1" style="stop-color:#FFFFFF"/>
				<a:midPointStop  offset="0" style="stop-color:#FFFDFF;stop-opacity:0"/>
				<a:midPointStop  offset="0.5" style="stop-color:#FFFDFF;stop-opacity:0"/>
				<a:midPointStop  offset="1" style="stop-color:#FFFFFF"/>
			</linearGradient>
			<path class="st11" d="M1460.2,799.1c24.8,63.8,86.9,109,159.4,109c94.4,0,171-76.5,171-171c0-50.3-21.7-95.5-56.4-126.8
				c-30.3-27.5-70.5-44.2-114.6-44.2c-62.9,0-117.9,34-147.6,84.6c-14.9,25.3-23.4,54.9-23.4,86.4
				C1448.6,759,1452.7,779.9,1460.2,799.1z M1532.8,687c17.3-30,49.7-50.1,86.9-50.1c26,0,49.8,9.9,67.6,26.2
				c20.1,18.3,32.8,44.7,32.8,74.1c0,54.6-43.6,99-97.8,100.3c-0.8,0.1-1.7,0.1-2.5,0.1c-42.4,0-78.7-26.3-93.3-63.5
				c-4.6-11.5-7-23.9-7-36.9C1519.2,718.9,1524.1,701.7,1532.8,687z"/>
			<linearGradient id="SVGID_10_" gradientUnits="userSpaceOnUse" x1="1619.6285" y1="759.2703" x2="1790.5815" y2="759.2703">
				<stop  offset="0" style="stop-color:#9F20FF"/>
				<stop  offset="1" style="stop-color:#5D0CA5;stop-opacity:0"/>
				<a:midPointStop  offset="0" style="stop-color:#9F20FF"/>
				<a:midPointStop  offset="0.5" style="stop-color:#9F20FF"/>
				<a:midPointStop  offset="1" style="stop-color:#5D0CA5;stop-opacity:0"/>
			</linearGradient>
			<path class="st12" d="M1619.6,908.2v-70.6c0.9,0,1.7-0.1,2.5-0.1c54.3-1.3,97.8-45.7,97.8-100.3c0-29.4-12.6-55.8-32.8-74.1
				l47-52.7c34.6,31.3,56.4,76.5,56.4,126.8C1790.6,831.6,1714,908.2,1619.6,908.2z"/>
			<linearGradient id="SVGID_11_" gradientUnits="userSpaceOnUse" x1="1448.6399" y1="724.9379" x2="1532.765" y2="724.9379">
				<stop  offset="0.391" style="stop-color:#FFFDFF;stop-opacity:0.9"/>
				<stop  offset="1" style="stop-color:#FFFFFF;stop-opacity:0"/>
				<a:midPointStop  offset="0.391" style="stop-color:#FFFDFF;stop-opacity:0.9"/>
				<a:midPointStop  offset="0.5" style="stop-color:#FFFDFF;stop-opacity:0.9"/>
				<a:midPointStop  offset="1" style="stop-color:#FFFFFF;stop-opacity:0"/>
			</linearGradient>
			<path class="st13" d="M1448.6,737.2c0-31.5,8.5-61.1,23.4-86.4l60.7,36.2c-8.6,14.7-13.5,31.9-13.5,50.2c0,13,2.5,25.4,7,36.9
				l-66.1,25C1452.7,779.9,1448.6,759,1448.6,737.2z"/>
			<linearGradient id="SVGID_12_" gradientUnits="userSpaceOnUse" x1="1472.0485" y1="626.5874" x2="1734.2396" y2="626.5874">
				<stop  offset="0" style="stop-color:#741854;stop-opacity:0"/>
				<stop  offset="1" style="stop-color:#FF31AE"/>
				<a:midPointStop  offset="0" style="stop-color:#741854;stop-opacity:0"/>
				<a:midPointStop  offset="0.5" style="stop-color:#741854;stop-opacity:0"/>
				<a:midPointStop  offset="1" style="stop-color:#FF31AE"/>
			</linearGradient>
			<path class="st14" d="M1472,650.8c29.7-50.6,84.7-84.5,147.6-84.5c44.1,0,84.3,16.7,114.6,44.2l-47,52.7
				c-17.8-16.3-41.5-26.2-67.6-26.2c-37.1,0-69.5,20.1-86.9,50.1L1472,650.8z"/>
		</g>
		<circle class="st15" cx="1668.3" cy="440.7" r="16.1"/>
		<circle class="st15" cx="1733.8" cy="440.7" r="16.1"/>
		<circle class="st15" cx="1799.4" cy="440.7" r="16.1"/>
	</g>
	<linearGradient id="SVGID_13_" gradientUnits="userSpaceOnUse" x1="593.2991" y1="679.9042" x2="593.2991" y2="210.5071">
		<stop  offset="0" style="stop-color:#FFFDFF;stop-opacity:0"/>
		<stop  offset="1" style="stop-color:#FFFFFF"/>
		<a:midPointStop  offset="0" style="stop-color:#FFFDFF;stop-opacity:0"/>
		<a:midPointStop  offset="0.5" style="stop-color:#FFFDFF;stop-opacity:0"/>
		<a:midPointStop  offset="1" style="stop-color:#FFFFFF"/>
	</linearGradient>
	<path class="st16" d="M979.2,679.9H207.4c-28.5,0-51.6-25.4-51.6-56.7v-356c0-31.3,23.1-56.7,51.6-56.7h771.8
		c28.5,0,51.6,25.4,51.6,56.7v356C1030.8,654.5,1007.7,679.9,979.2,679.9z"/>
	<g>
		<linearGradient id="SVGID_14_" gradientUnits="userSpaceOnUse" x1="708.2551" y1="350.7877" x2="726.8177" y2="691.8761">
			<stop  offset="0" style="stop-color:#FFFFFF"/>
			<stop  offset="1" style="stop-color:#FFFDFF;stop-opacity:0"/>
			<a:midPointStop  offset="0" style="stop-color:#FFFFFF"/>
			<a:midPointStop  offset="0.5" style="stop-color:#FFFFFF"/>
			<a:midPointStop  offset="1" style="stop-color:#FFFDFF;stop-opacity:0"/>
		</linearGradient>
		<rect x="636.6" y="363.6" class="st17" width="146.1" height="27.2"/>
		<linearGradient id="SVGID_15_" gradientUnits="userSpaceOnUse" x1="778.1788" y1="346.979" x2="796.7418" y2="688.0751">
			<stop  offset="0" style="stop-color:#FFFFFF"/>
			<stop  offset="1" style="stop-color:#FFFDFF;stop-opacity:0"/>
			<a:midPointStop  offset="0" style="stop-color:#FFFFFF"/>
			<a:midPointStop  offset="0.5" style="stop-color:#FFFFFF"/>
			<a:midPointStop  offset="1" style="stop-color:#FFFDFF;stop-opacity:0"/>
		</linearGradient>
		<rect x="636.6" y="417.3" class="st18" width="292.2" height="27.2"/>
		<linearGradient id="SVGID_16_" gradientUnits="userSpaceOnUse" x1="775.2664" y1="347.1344" x2="793.8295" y2="688.2304">
			<stop  offset="0" style="stop-color:#FFFFFF"/>
			<stop  offset="1" style="stop-color:#FFFDFF;stop-opacity:0"/>
			<a:midPointStop  offset="0" style="stop-color:#FFFFFF"/>
			<a:midPointStop  offset="0.5" style="stop-color:#FFFFFF"/>
			<a:midPointStop  offset="1" style="stop-color:#FFFDFF;stop-opacity:0"/>
		</linearGradient>
		<rect x="636.6" y="470.9" class="st19" width="292.2" height="27.2"/>
	</g>
	<linearGradient id="SVGID_17_" gradientUnits="userSpaceOnUse" x1="1465.6307" y1="1300.1404" x2="1782.3535" y2="1300.1404">
		<stop  offset="0" style="stop-color:#01FFFF"/>
		<stop  offset="0.9414" style="stop-color:#214FB3"/>
		<a:midPointStop  offset="0" style="stop-color:#01FFFF"/>
		<a:midPointStop  offset="0.5" style="stop-color:#01FFFF"/>
		<a:midPointStop  offset="0.9414" style="stop-color:#214FB3"/>
	</linearGradient>
	<path class="st20" d="M1538.7,1485.3h170.5c40.4,0,73.1-32.7,73.1-73.1v-224.1c0-40.4-32.7-73.1-73.1-73.1h-170.5
		c-40.4,0-73.1,32.7-73.1,73.1v224.1C1465.6,1452.6,1498.4,1485.3,1538.7,1485.3z"/>
	<g>
		<path class="st9" d="M1592.7,1355.3h114.9c6.5,0,12.1-4.3,13.8-10.6l22.1-81.6c2.5-9.1-4.4-18.1-13.8-18.1h-159.2
			c-9.4,0-16.3,9-13.8,18.1l22.1,81.6C1580.6,1351,1586.3,1355.3,1592.7,1355.3z"/>
		<g>
			<path class="st9" d="M1572.5,1373.7h138.4c1.6,0,2.9-1.3,2.9-2.9c0-1.6-1.3-2.9-2.9-2.9h-136.3l-48.2-168
				c-0.4-1.2-1.5-2.1-2.7-2.1h-30.1c-1.6,0-2.9,1.3-2.9,2.9s1.3,2.9,2.9,2.9h28l48.2,168C1570.1,1372.8,1571.2,1373.7,1572.5,1373.7
				z"/>
		</g>
		<g>
			<circle class="st9" cx="1706.5" cy="1396.2" r="16.7"/>
			<circle class="st9" cx="1584.8" cy="1396.2" r="16.7"/>
		</g>
	</g>
	<linearGradient id="SVGID_18_" gradientUnits="userSpaceOnUse" x1="1356.7321" y1="942.6981" x2="1480.3535" y2="942.6981">
		<stop  offset="0" style="stop-color:#FFA9A8"/>
		<stop  offset="1" style="stop-color:#E86767"/>
		<a:midPointStop  offset="0" style="stop-color:#FFA9A8"/>
		<a:midPointStop  offset="0.5" style="stop-color:#FFA9A8"/>
		<a:midPointStop  offset="1" style="stop-color:#E86767"/>
	</linearGradient>
	<path class="st21" d="M1473,906.7c-5.1-0.3-12.3-2-17.4-0.6c-2.6,0.7-4.9,2.8-6.9,4.7c3-12.6-39.8,5.6-57.8,6.6
		c-18.9,1.1-20.4,30.1-20.4,30.1c-41.4,57.6,20.2,23.2,53.2,13.5c16.1-1,34.4,2.4,44.1-11.9c5.7-8.3,10.4-20.3,11.9-30.2
		C1481,911.4,1480.7,907.1,1473,906.7z"/>
	<linearGradient id="SVGID_19_" gradientUnits="userSpaceOnUse" x1="718.1379" y1="1114.1626" x2="1393.0049" y2="1114.1626">
		<stop  offset="0" style="stop-color:#FBB040"/>
		<stop  offset="1" style="stop-color:#ED5000"/>
		<a:midPointStop  offset="0" style="stop-color:#FBB040"/>
		<a:midPointStop  offset="0.5" style="stop-color:#FBB040"/>
		<a:midPointStop  offset="1" style="stop-color:#ED5000"/>
	</linearGradient>
	<path class="st22" d="M1366.6,935c8.8,19.6,17.6,39.1,26.4,58.6c-17.9,33.5-46.9,79.3-92,125.3c-19.9,20.3-81,79.3-174.8,119.6
		c-127.6,54.8-349.4,89.1-398.2,0.7c-43.6-78.9,70.5-219.3,91.3-244.5c30.6,20.9-3.5-27.9,150.7,66.6c19.8,12.2,81.7,18.7,152.2,9
		C1252.7,1052.5,1337.5,967.4,1366.6,935z"/>
	<path class="st9" d="M891.1,1743.8c20.6-34.2-5.3-67.2-11.2-132.1c-6.7-73.5,21.6-85.7,49.6-207.6c18.6-81,36.5-158.8,15.2-249.8
		c-10.2-43.6-27.6-117.6-88.8-153.4c-31.6-18.4-74.8-16.6-159.8-12.2c-105.1,5.5-157.7,8.2-196.9,28.9c-5.7,3-125,67.9-133.2,173.6
		c-8.4,107.6,108.8,122.1,124.5,265.6c7,64.4-5.5,163.5-13.6,227.8c-7.8,61.7-13.1,77.5-1,96.2c29.4,45,119.2,32.2,298.9,6.5
		C845.3,1777.4,875.7,1769.4,891.1,1743.8z"/>
	<linearGradient id="SVGID_20_" gradientUnits="userSpaceOnUse" x1="217.2586" y1="1268.2238" x2="542.786" y2="1268.2238">
		<stop  offset="0" style="stop-color:#FBB040"/>
		<stop  offset="1" style="stop-color:#ED5000"/>
		<a:midPointStop  offset="0" style="stop-color:#FBB040"/>
		<a:midPointStop  offset="0.5" style="stop-color:#FBB040"/>
		<a:midPointStop  offset="1" style="stop-color:#ED5000"/>
	</linearGradient>
	<path class="st23" d="M517.7,1255.4c21.5-51.5,40.5-130.4,6.5-247.5c-224,88.2-342.2,297.4-297.6,463.2
		c36.8,136.7,224.9-11.3,252.7-27.3c-1-14.6-4.5-20.2-8.7-34.8c-39,7.7-99.1,25.1-107.4,5.6C327.6,1331.5,474.1,1359.8,517.7,1255.4
		z"/>
	<linearGradient id="SVGID_21_" gradientUnits="userSpaceOnUse" x1="593.6776" y1="997.916" x2="771.1449" y2="997.916">
		<stop  offset="0" style="stop-color:#FFA9A8"/>
		<stop  offset="1" style="stop-color:#E86767"/>
		<a:midPointStop  offset="0" style="stop-color:#FFA9A8"/>
		<a:midPointStop  offset="0.5" style="stop-color:#FFA9A8"/>
		<a:midPointStop  offset="1" style="stop-color:#E86767"/>
	</linearGradient>
	<path class="st24" d="M662,867.5c0,0,6.5,55.7-23.2,82.1c-29.7,26.4-73.3,60.3-20,106.7c53.4,46.4,82.6,71.9,82.6,71.9
		s60.8-65.9,68.7-102.1c7.9-36.2-30.6-64-34.8-91.4c-4.2-27.4-11.2-42.9-5.8-61.8"/>
	<linearGradient id="SVGID_22_" gradientUnits="userSpaceOnUse" x1="762.1958" y1="1416.9176" x2="966.4244" y2="1416.9176">
		<stop  offset="0" style="stop-color:#FBB040"/>
		<stop  offset="1" style="stop-color:#ED5000"/>
		<a:midPointStop  offset="0" style="stop-color:#FBB040"/>
		<a:midPointStop  offset="0.5" style="stop-color:#FBB040"/>
		<a:midPointStop  offset="1" style="stop-color:#ED5000"/>
	</linearGradient>
	<path class="st25" d="M762.2,986.5c0,0,57.8,107.9,62.6,267.9s14.8,284.4,0.9,380.9s15.8,214.4,15.8,214.4s58.5,1.9,60.3-98.4
		c1.9-100.2-28.8-158.7-5.6-231.1c23.2-72.4,76.1-163.3,69.6-280.2C959.4,1123.2,915.8,962.2,762.2,986.5z"/>
	<linearGradient id="SVGID_23_" gradientUnits="userSpaceOnUse" x1="350.3117" y1="1424.4948" x2="631.1235" y2="1424.4948">
		<stop  offset="0" style="stop-color:#FBB040"/>
		<stop  offset="1" style="stop-color:#ED5000"/>
		<a:midPointStop  offset="0" style="stop-color:#FBB040"/>
		<a:midPointStop  offset="0.5" style="stop-color:#FBB040"/>
		<a:midPointStop  offset="1" style="stop-color:#ED5000"/>
	</linearGradient>
	<path class="st26" d="M598,994.9c0,0-40.7,120.9,5.7,247.1s22.3,436.1,12.1,519.6c-10.2,83.5-12.6,92.3-12.6,92.3
		s-140.5-13.5-148.8-58s44.5-225.5,13-345.2c-31.5-119.7-116.9-138.3-116.9-219.9C350.3,1149.3,415.6,1003.3,598,994.9z"/>
	<g>
		<g>
			<path class="st27" d="M479.1,1298.4l46.5,177.3c1.1,4.2,5.5,7.1,9.7,6.5l123.4-16.4c4.3-0.6,6.9-4.4,5.8-8.6L618,1279.9
				c-1.1-4.2-5.5-7.1-9.7-6.5l-123.4,16.4C480.6,1290.4,478,1294.3,479.1,1298.4z"/>
			<linearGradient id="SVGID_24_" gradientUnits="userSpaceOnUse" x1="478.8335" y1="1378.2013" x2="659.1649" y2="1378.2013">
				<stop  offset="0" style="stop-color:#1C134A"/>
				<stop  offset="1" style="stop-color:#40168F"/>
				<a:midPointStop  offset="0" style="stop-color:#1C134A"/>
				<a:midPointStop  offset="0.5" style="stop-color:#1C134A"/>
				<a:midPointStop  offset="1" style="stop-color:#40168F"/>
			</linearGradient>
			<path class="st28" d="M479.1,1298.4l46.5,177.3c1.1,4.2,5.5,7.1,9.7,6.5l117.8-15.7c4.3-0.6,6.9-4.4,5.8-8.6l-46.5-177.3
				c-1.1-4.2-5.5-7.1-9.7-6.5l-117.8,15.7C480.6,1290.4,478,1294.3,479.1,1298.4z"/>
			<path class="st9" d="M564.8,1366c6.1-0.8,12.4,3.4,13.9,9.3c1.6,6-2.1,11.5-8.3,12.3c-6.1,0.8-12.4-3.4-13.9-9.3
				C562.6,1377.5,566.3,1372,564.8,1366z"/>
		</g>
		<linearGradient id="SVGID_25_" gradientUnits="userSpaceOnUse" x1="453.3495" y1="1397.2144" x2="549.1274" y2="1397.2144">
			<stop  offset="0" style="stop-color:#FFA9A8"/>
			<stop  offset="1" style="stop-color:#E86767"/>
			<a:midPointStop  offset="0" style="stop-color:#FFA9A8"/>
			<a:midPointStop  offset="0.5" style="stop-color:#FFA9A8"/>
			<a:midPointStop  offset="1" style="stop-color:#E86767"/>
		</linearGradient>
		<path class="st29" d="M453.3,1420.3l35.2-2.3c0.6-8.1,3.2-25.5,16.2-40.4c14.7-16.7,38.9-26,43.4-20.8c3.7,4.2-5.2,17.7-6.6,19.8
			c-11.1,16.9-25.9,20.6-27.6,31.3c-0.6,3.8-0.3,9.8-3.8,18.2c-0.9,2.2-2,4.3-2.7,5.4c-7.3,11.5-37.9,6.6-40.5,6.2L453.3,1420.3z"/>
	</g>
	<linearGradient id="SVGID_26_" gradientUnits="userSpaceOnUse" x1="680.536" y1="1355.7015" x2="763.5567" y2="1355.7015">
		<stop  offset="0" style="stop-color:#5D0CA5"/>
		<stop  offset="1" style="stop-color:#9F20FF"/>
		<a:midPointStop  offset="0" style="stop-color:#5D0CA5"/>
		<a:midPointStop  offset="0.5" style="stop-color:#5D0CA5"/>
		<a:midPointStop  offset="1" style="stop-color:#9F20FF"/>
	</linearGradient>
	<path class="st30" d="M760.5,1371.8c-1.4-22.2-4.3-43.7-8.1-63.9c-12.8-69.1-35.4-122.7-42.2-137.9c3.9-5.3,8.1-13.6,8.2-17.2
		c0.1-5.3-4.1-5.7-4.1-5.7l-32.5,7.8c-5.4,7.5,6.3,14.8,15.2,18.1c2,32.3,9.1,153.8,8.8,195.8c-0.1,15.2-1.7,40.3-3.8,66.1
		c-2.5,31.8-5.6,64.8-7.3,81.9c-0.7,7.7,1.5,15.4,6.3,21.4L719,1561c3,3.9,8.7,4.3,12.3,1l14.4-13.2c9.1-8.4,14.8-20,15.9-32.3
		C766.6,1460.4,760.5,1371.8,760.5,1371.8z"/>
	<g>
		<g>
			<g>
				<g>
					<linearGradient id="SVGID_27_" gradientUnits="userSpaceOnUse" x1="394.346" y1="617.375" x2="546.8377" y2="617.375">
						<stop  offset="0" style="stop-color:#01FFFF"/>
						<stop  offset="0.9414" style="stop-color:#214FB3"/>
						<a:midPointStop  offset="0" style="stop-color:#01FFFF"/>
						<a:midPointStop  offset="0.5" style="stop-color:#01FFFF"/>
						<a:midPointStop  offset="0.9414" style="stop-color:#214FB3"/>
					</linearGradient>
					<path class="st31" d="M546.8,598.4l-35.7,41.1l-11.2-6.3l-72.6,34.1c-6.2,2.9-13.5,0.4-16.6-5.7l-16.3-32.4
						c0,0,51.3-8.4,64-22.8c12.7-14.4,3.7-20.6,3.7-20.6l28-19.4L546.8,598.4z"/>
				</g>
			</g>
			<g>
				<linearGradient id="SVGID_28_" gradientUnits="userSpaceOnUse" x1="248.5715" y1="423.3931" x2="539.6093" y2="423.3931">
					<stop  offset="0" style="stop-color:#01FFFF"/>
					<stop  offset="0.9414" style="stop-color:#214FB3"/>
					<a:midPointStop  offset="0" style="stop-color:#01FFFF"/>
					<a:midPointStop  offset="0.5" style="stop-color:#01FFFF"/>
					<a:midPointStop  offset="0.9414" style="stop-color:#214FB3"/>
				</linearGradient>
				<path class="st32" d="M539.6,494.5c0,0-33.2-16.5-70.9-76.4c-37.6-59.9-45.2-128.9-51.3-130.1c-6.1-1.2-29.5-20.1-107.1,76.9
					c-77.5,96.9-64,127.3-54,129.5c10.1,2.3,82.7,0.3,124,15.7c41.3,15.4,90.3,51.1,90.3,51.1L539.6,494.5z"/>
			</g>
			<g>
				<linearGradient id="SVGID_29_" gradientUnits="userSpaceOnUse" x1="462.9507" y1="541.1595" x2="607.2559" y2="541.1595">
					<stop  offset="0" style="stop-color:#01FFFF"/>
					<stop  offset="0.9414" style="stop-color:#214FB3"/>
					<a:midPointStop  offset="0" style="stop-color:#01FFFF"/>
					<a:midPointStop  offset="0.5" style="stop-color:#01FFFF"/>
					<a:midPointStop  offset="0.9414" style="stop-color:#214FB3"/>
				</linearGradient>
				<path class="st33" d="M599.5,572.7l-17.7,19.8l-7.9,8.9c-10.9,12.2-29.4,13.7-42.1,3.5l-68.8-45l68.8-89.3l65.3,58.9
					C609.7,540.8,610.7,560.1,599.5,572.7z"/>
			</g>
			<g class="st34">
				<linearGradient id="SVGID_30_" gradientUnits="userSpaceOnUse" x1="462.9507" y1="541.1595" x2="607.2559" y2="541.1595">
					<stop  offset="0" style="stop-color:#01FFFF"/>
					<stop  offset="0.9414" style="stop-color:#214FB3"/>
					<a:midPointStop  offset="0" style="stop-color:#01FFFF"/>
					<a:midPointStop  offset="0.5" style="stop-color:#01FFFF"/>
					<a:midPointStop  offset="0.9414" style="stop-color:#214FB3"/>
				</linearGradient>
				<path class="st35" d="M599.5,572.7l-17.7,19.8l-7.9,8.9c-10.9,12.2-29.4,13.7-42.1,3.5l-68.8-45l68.8-89.3l65.3,58.9
					C609.7,540.8,610.7,560.1,599.5,572.7z"/>
			</g>
			<g>
				<linearGradient id="SVGID_31_" gradientUnits="userSpaceOnUse" x1="256.7877" y1="384.3204" x2="412.9248" y2="384.3204">
					<stop  offset="0" style="stop-color:#01FFFF"/>
					<stop  offset="0.9414" style="stop-color:#214FB3"/>
					<a:midPointStop  offset="0" style="stop-color:#01FFFF"/>
					<a:midPointStop  offset="0.5" style="stop-color:#01FFFF"/>
					<a:midPointStop  offset="0.9414" style="stop-color:#214FB3"/>
				</linearGradient>
				<path class="st36" d="M313.9,367.8c-41.5,52.6-65.8,102.7-54.3,111.8c11.6,9.1,54.6-26.1,96.1-78.8
					c41.5-52.6,65.8-102.7,54.3-111.8C398.5,279.9,355.4,315.2,313.9,367.8z"/>
			</g>
			<g class="st37">
				<linearGradient id="SVGID_32_" gradientUnits="userSpaceOnUse" x1="256.7877" y1="384.3204" x2="412.9248" y2="384.3204">
					<stop  offset="0" style="stop-color:#01FFFF"/>
					<stop  offset="0.9414" style="stop-color:#214FB3"/>
					<a:midPointStop  offset="0" style="stop-color:#01FFFF"/>
					<a:midPointStop  offset="0.5" style="stop-color:#01FFFF"/>
					<a:midPointStop  offset="0.9414" style="stop-color:#214FB3"/>
				</linearGradient>
				<path class="st38" d="M313.9,367.8c-41.5,52.6-65.8,102.7-54.3,111.8c11.6,9.1,54.6-26.1,96.1-78.8
					c41.5-52.6,65.8-102.7,54.3-111.8C398.5,279.9,355.4,315.2,313.9,367.8z"/>
			</g>
		</g>
		<g>
			<linearGradient id="SVGID_33_" gradientUnits="userSpaceOnUse" x1="578.9091" y1="591.0899" x2="610.4874" y2="591.0899">
				<stop  offset="0" style="stop-color:#01FFFF"/>
				<stop  offset="0.9414" style="stop-color:#214FB3"/>
				<a:midPointStop  offset="0" style="stop-color:#01FFFF"/>
				<a:midPointStop  offset="0.5" style="stop-color:#01FFFF"/>
				<a:midPointStop  offset="0.9414" style="stop-color:#214FB3"/>
			</linearGradient>
			<polygon class="st39" points="597.7,607.3 578.9,595.8 597.5,574.9 610.5,588.2 			"/>
		</g>
		<g class="st40">
			<linearGradient id="SVGID_34_" gradientUnits="userSpaceOnUse" x1="578.9091" y1="586.5216" x2="599.0851" y2="586.5216">
				<stop  offset="0" style="stop-color:#01FFFF"/>
				<stop  offset="0.9414" style="stop-color:#214FB3"/>
				<a:midPointStop  offset="0" style="stop-color:#01FFFF"/>
				<a:midPointStop  offset="0.5" style="stop-color:#01FFFF"/>
				<a:midPointStop  offset="0.9414" style="stop-color:#214FB3"/>
			</linearGradient>
			<polygon class="st41" points="597.5,574.9 578.9,595.8 582.8,598.2 599.1,576.5 			"/>
		</g>
		<g>
			<linearGradient id="SVGID_35_" gradientUnits="userSpaceOnUse" x1="542.5928" y1="561.3532" x2="582.0955" y2="561.3532">
				<stop  offset="0" style="stop-color:#01FFFF"/>
				<stop  offset="0.9414" style="stop-color:#214FB3"/>
				<a:midPointStop  offset="0" style="stop-color:#01FFFF"/>
				<a:midPointStop  offset="0.5" style="stop-color:#01FFFF"/>
				<a:midPointStop  offset="0.9414" style="stop-color:#214FB3"/>
			</linearGradient>
			<path class="st42" d="M582.1,576.9c-0.5,0.6-9.7-5.9-20.6-14.5c-10.9-8.6-19.4-16.1-18.9-16.6c0.5-0.6,9.7,5.9,20.6,14.5
				C574.1,568.9,582.5,576.3,582.1,576.9z"/>
		</g>
		<g>
			<linearGradient id="SVGID_36_" gradientUnits="userSpaceOnUse" x1="556.7509" y1="549.3323" x2="591.9458" y2="549.3323">
				<stop  offset="0" style="stop-color:#01FFFF"/>
				<stop  offset="0.9414" style="stop-color:#214FB3"/>
				<a:midPointStop  offset="0" style="stop-color:#01FFFF"/>
				<a:midPointStop  offset="0.5" style="stop-color:#01FFFF"/>
				<a:midPointStop  offset="0.9414" style="stop-color:#214FB3"/>
			</linearGradient>
			<path class="st43" d="M591.9,564.2c-0.5,0.6-8.7-5.6-18.4-13.8c-9.7-8.2-17.2-15.3-16.7-15.9c0.5-0.6,8.7,5.6,18.4,13.8
				C584.9,556.5,592.4,563.6,591.9,564.2z"/>
		</g>
		<g>
			<linearGradient id="SVGID_37_" gradientUnits="userSpaceOnUse" x1="534.3418" y1="575.9333" x2="570.4273" y2="575.9333">
				<stop  offset="0" style="stop-color:#01FFFF"/>
				<stop  offset="0.9414" style="stop-color:#214FB3"/>
				<a:midPointStop  offset="0" style="stop-color:#01FFFF"/>
				<a:midPointStop  offset="0.5" style="stop-color:#01FFFF"/>
				<a:midPointStop  offset="0.9414" style="stop-color:#214FB3"/>
			</linearGradient>
			<path class="st44" d="M570.4,590c-0.2,0.3-2.5-0.8-6.1-3c-1.8-1.1-3.9-2.4-6.2-3.9c-2.3-1.5-4.6-3.5-7.1-5.5
				c-9.9-8-17.2-15.2-16.7-15.7c0.5-0.6,8.6,5.7,18.4,13.6c2.5,1.9,4.7,4,6.9,5.6c2.2,1.6,4.2,3.1,5.8,4.3
				C568.7,587.9,570.6,589.7,570.4,590z"/>
		</g>
		<g>
			<linearGradient id="SVGID_38_" gradientUnits="userSpaceOnUse" x1="307.7735" y1="394.8519" x2="371.7871" y2="394.8519">
				<stop  offset="0" style="stop-color:#01FFFF"/>
				<stop  offset="0.9414" style="stop-color:#214FB3"/>
				<a:midPointStop  offset="0" style="stop-color:#01FFFF"/>
				<a:midPointStop  offset="0.5" style="stop-color:#01FFFF"/>
				<a:midPointStop  offset="0.9414" style="stop-color:#214FB3"/>
			</linearGradient>
			<path class="st45" d="M371.8,368.2c0,0-25.8-26.6-52.9,10.6c-27,37.1,3.5,51.9,3.5,51.9C340.6,413.6,357.2,392.8,371.8,368.2z"/>
		</g>
		<g class="st37">
			<linearGradient id="SVGID_39_" gradientUnits="userSpaceOnUse" x1="284.1066" y1="406.3161" x2="416.5618" y2="406.3161">
				<stop  offset="0" style="stop-color:#01FFFF"/>
				<stop  offset="0.9414" style="stop-color:#214FB3"/>
				<a:midPointStop  offset="0" style="stop-color:#01FFFF"/>
				<a:midPointStop  offset="0.5" style="stop-color:#01FFFF"/>
				<a:midPointStop  offset="0.9414" style="stop-color:#214FB3"/>
			</linearGradient>
			<path class="st46" d="M416.5,327.1c0.2,0.1-1,2.8-3.2,7.6c-2.2,4.8-5.4,11.8-9.6,20.3c-2.4,4.1-5,8.6-7.8,13.4
				c-1.4,2.4-2.9,4.9-4.4,7.5c-0.8,1.3-1.5,2.6-2.3,3.9c-0.8,1.3-1.7,2.5-2.6,3.8c-3.6,5.1-7.4,10.5-11.3,16.1c-1,1.4-2,2.8-3,4.2
				c-1,1.4-2.2,2.7-3.3,4.1c-2.3,2.7-4.6,5.5-6.9,8.2c-2.3,2.8-4.6,5.5-6.9,8.2c-1.2,1.3-2.2,2.7-3.4,4c-1.2,1.2-2.4,2.5-3.6,3.7
				c-4.8,4.9-9.4,9.6-13.8,14c-1.1,1.1-2.2,2.2-3.3,3.3c-1.2,1-2.3,2-3.4,3c-2.3,1.9-4.5,3.8-6.6,5.6c-4.2,3.6-8.2,7-11.8,10.1
				c-7.6,5.6-13.9,10-18.2,13c-4.3,3-6.8,4.6-6.9,4.5c-0.1-0.1,2.1-2,6.3-5.3c4.3-3.3,10.3-8,17.7-13.7c3.5-3.1,7.4-6.6,11.5-10.3
				c2.1-1.8,4.2-3.7,6.4-5.7c1.1-1,2.2-2,3.4-3c1.1-1,2.1-2.2,3.2-3.3c4.3-4.5,8.9-9.2,13.6-14c1.2-1.2,2.4-2.4,3.6-3.7
				c1.2-1.2,2.2-2.6,3.4-4c2.2-2.7,4.5-5.4,6.8-8.2c2.3-2.8,4.6-5.5,6.8-8.2c1.1-1.4,2.3-2.6,3.3-4c1-1.4,2-2.8,3-4.2
				c3.9-5.5,7.8-10.8,11.4-15.9c0.9-1.3,1.8-2.5,2.7-3.8c0.8-1.3,1.6-2.6,2.3-3.8c1.5-2.5,3-5,4.5-7.3c2.9-4.7,5.6-9.1,8.1-13.2
				c4.3-8.3,7.8-15,10.3-19.8C414.9,329.5,416.4,327,416.5,327.1z"/>
		</g>
	</g>
	<g>
		<linearGradient id="SVGID_40_" gradientUnits="userSpaceOnUse" x1="997.0164" y1="1532.355" x2="1367.4044" y2="1532.355">
			<stop  offset="0" style="stop-color:#01FFFF"/>
			<stop  offset="1" style="stop-color:#214FB3;stop-opacity:0"/>
			<a:midPointStop  offset="0" style="stop-color:#01FFFF"/>
			<a:midPointStop  offset="0.5" style="stop-color:#01FFFF"/>
			<a:midPointStop  offset="1" style="stop-color:#214FB3;stop-opacity:0"/>
		</linearGradient>
		<path class="st47" d="M997,1507.3c7.6,2.7,102.1,59.7,102.1,59.7l268.3-69.3L997,1507.3z"/>
		<linearGradient id="SVGID_41_" gradientUnits="userSpaceOnUse" x1="1099.1119" y1="1590.6837" x2="1367.4044" y2="1590.6837">
			<stop  offset="0" style="stop-color:#01FFFF"/>
			<stop  offset="0.9414" style="stop-color:#214FB3"/>
			<a:midPointStop  offset="0" style="stop-color:#01FFFF"/>
			<a:midPointStop  offset="0.5" style="stop-color:#01FFFF"/>
			<a:midPointStop  offset="0.9414" style="stop-color:#214FB3"/>
		</linearGradient>
		<polygon class="st48" points="1104,1683.7 1099.1,1567 1367.4,1497.7 		"/>
		<polygon class="st49" points="1104,1683.7 1175.3,1606.4 1367.4,1497.7 		"/>
		<linearGradient id="SVGID_42_" gradientUnits="userSpaceOnUse" x1="1175.3402" y1="1585.7356" x2="1367.4044" y2="1585.7356">
			<stop  offset="0" style="stop-color:#01FFFF"/>
			<stop  offset="1" style="stop-color:#214FB3;stop-opacity:0"/>
			<a:midPointStop  offset="0" style="stop-color:#01FFFF"/>
			<a:midPointStop  offset="0.5" style="stop-color:#01FFFF"/>
			<a:midPointStop  offset="1" style="stop-color:#214FB3;stop-opacity:0"/>
		</linearGradient>
		<polygon class="st50" points="1175.3,1606.4 1293.9,1673.8 1367.4,1497.7 		"/>
	</g>
	
		<linearGradient id="SVGID_43_" gradientUnits="userSpaceOnUse" x1="431.7592" y1="113.1393" x2="481.8374" y2="1033.3262" gradientTransform="matrix(0.5985 -0.8011 -0.8011 -0.5985 711.5345 2256.9739)">
		<stop  offset="0" style="stop-color:#FFFFFF"/>
		<stop  offset="1" style="stop-color:#FFFDFF;stop-opacity:0"/>
		<a:midPointStop  offset="0" style="stop-color:#FFFFFF"/>
		<a:midPointStop  offset="0.5" style="stop-color:#FFFFFF"/>
		<a:midPointStop  offset="1" style="stop-color:#FFFDFF;stop-opacity:0"/>
	</linearGradient>
	<path class="st51" d="M1049.4,1630.6c0,0-755.4,232.2-909.7-53.2S402,1068,402,1068"/>
	
		<linearGradient id="SVGID_44_" gradientUnits="userSpaceOnUse" x1="1653.0438" y1="-57.9274" x2="1703.1221" y2="862.2595" gradientTransform="matrix(-0.4405 0.8978 0.8978 0.4405 1845.9921 -1326.9099)">
		<stop  offset="0" style="stop-color:#FFFFFF"/>
		<stop  offset="1" style="stop-color:#FFFDFF;stop-opacity:0"/>
		<a:midPointStop  offset="0" style="stop-color:#FFFFFF"/>
		<a:midPointStop  offset="0.5" style="stop-color:#FFFFFF"/>
		<a:midPointStop  offset="1" style="stop-color:#FFFDFF;stop-opacity:0"/>
	</linearGradient>
	<path class="st52" d="M937.9,372.1c0,0,699.7-367.5,903.9-115.5s-163.7,549-163.7,549"/>
	<g>
		<g>
			<g>
				<linearGradient id="SVGID_45_" gradientUnits="userSpaceOnUse" x1="1641.9656" y1="1275.2888" x2="1641.9656" y2="1604.6248">
					<stop  offset="0" style="stop-color:#FFFDFF;stop-opacity:0"/>
					<stop  offset="1" style="stop-color:#FFFFFF"/>
					<a:midPointStop  offset="0" style="stop-color:#FFFDFF;stop-opacity:0"/>
					<a:midPointStop  offset="0.5" style="stop-color:#FFFDFF;stop-opacity:0"/>
					<a:midPointStop  offset="1" style="stop-color:#FFFFFF"/>
				</linearGradient>
				<rect x="1623.1" y="1551.8" class="st53" width="37.8" height="297.6"/>
				<linearGradient id="SVGID_46_" gradientUnits="userSpaceOnUse" x1="1641.9656" y1="1602.007" x2="1641.9656" y2="1849.0358">
					<stop  offset="0" style="stop-color:#ED5000;stop-opacity:0"/>
					<stop  offset="1" style="stop-color:#FBB040"/>
					<a:midPointStop  offset="0" style="stop-color:#ED5000;stop-opacity:0"/>
					<a:midPointStop  offset="0.5" style="stop-color:#ED5000;stop-opacity:0"/>
					<a:midPointStop  offset="1" style="stop-color:#FBB040"/>
				</linearGradient>
				<rect x="1623.1" y="1602.8" class="st54" width="37.8" height="246.6"/>
				<g>
					<linearGradient id="SVGID_47_" gradientUnits="userSpaceOnUse" x1="1572.9055" y1="1275.2888" x2="1572.9055" y2="1604.6248">
						<stop  offset="0" style="stop-color:#FFFDFF;stop-opacity:0"/>
						<stop  offset="1" style="stop-color:#FFFFFF"/>
						<a:midPointStop  offset="0" style="stop-color:#FFFDFF;stop-opacity:0"/>
						<a:midPointStop  offset="0.5" style="stop-color:#FFFDFF;stop-opacity:0"/>
						<a:midPointStop  offset="1" style="stop-color:#FFFFFF"/>
					</linearGradient>
					<rect x="1554" y="1673.6" class="st55" width="37.8" height="175.8"/>
					<linearGradient id="SVGID_48_" gradientUnits="userSpaceOnUse" x1="1572.9055" y1="1738.4928" x2="1572.9055" y2="1856.5363">
						<stop  offset="0" style="stop-color:#ED5000;stop-opacity:0"/>
						<stop  offset="1" style="stop-color:#FBB040"/>
						<a:midPointStop  offset="0" style="stop-color:#ED5000;stop-opacity:0"/>
						<a:midPointStop  offset="0.5" style="stop-color:#ED5000;stop-opacity:0"/>
						<a:midPointStop  offset="1" style="stop-color:#FBB040"/>
					</linearGradient>
					<rect x="1554" y="1741.1" class="st56" width="37.8" height="108.3"/>
				</g>
				<g>
					<linearGradient id="SVGID_49_" gradientUnits="userSpaceOnUse" x1="1503.8453" y1="1275.2888" x2="1503.8453" y2="1604.6248">
						<stop  offset="0" style="stop-color:#FFFDFF;stop-opacity:0"/>
						<stop  offset="1" style="stop-color:#FFFFFF"/>
						<a:midPointStop  offset="0" style="stop-color:#FFFDFF;stop-opacity:0"/>
						<a:midPointStop  offset="0.5" style="stop-color:#FFFDFF;stop-opacity:0"/>
						<a:midPointStop  offset="1" style="stop-color:#FFFFFF"/>
					</linearGradient>
					<rect x="1485" y="1626.6" class="st57" width="37.8" height="222.9"/>
					<linearGradient id="SVGID_50_" gradientUnits="userSpaceOnUse" x1="1503.8453" y1="1695.292" x2="1503.8453" y2="1859.119">
						<stop  offset="0" style="stop-color:#ED5000;stop-opacity:0"/>
						<stop  offset="1" style="stop-color:#FBB040"/>
						<a:midPointStop  offset="0" style="stop-color:#ED5000;stop-opacity:0"/>
						<a:midPointStop  offset="0.5" style="stop-color:#ED5000;stop-opacity:0"/>
						<a:midPointStop  offset="1" style="stop-color:#FBB040"/>
					</linearGradient>
					<rect x="1485" y="1694" class="st58" width="37.8" height="155.4"/>
				</g>
			</g>
		</g>
		<g>
			<g>
				<g>
					<linearGradient id="SVGID_51_" gradientUnits="userSpaceOnUse" x1="1711.0258" y1="1275.2888" x2="1711.0258" y2="1604.6248">
						<stop  offset="0" style="stop-color:#FFFDFF;stop-opacity:0"/>
						<stop  offset="1" style="stop-color:#FFFFFF"/>
						<a:midPointStop  offset="0" style="stop-color:#FFFDFF;stop-opacity:0"/>
						<a:midPointStop  offset="0.5" style="stop-color:#FFFDFF;stop-opacity:0"/>
						<a:midPointStop  offset="1" style="stop-color:#FFFFFF"/>
					</linearGradient>
					<rect x="1692.1" y="1716.4" class="st59" width="37.8" height="133"/>
					<linearGradient id="SVGID_52_" gradientUnits="userSpaceOnUse" x1="1711.0258" y1="1746.5632" x2="1711.0258" y2="1859.7115">
						<stop  offset="0" style="stop-color:#ED5000;stop-opacity:0"/>
						<stop  offset="1" style="stop-color:#FBB040"/>
						<a:midPointStop  offset="0" style="stop-color:#ED5000;stop-opacity:0"/>
						<a:midPointStop  offset="0.5" style="stop-color:#ED5000;stop-opacity:0"/>
						<a:midPointStop  offset="1" style="stop-color:#FBB040"/>
					</linearGradient>
					<rect x="1692.1" y="1744.8" class="st60" width="37.8" height="104.6"/>
				</g>
			</g>
		</g>
		<linearGradient id="SVGID_53_" gradientUnits="userSpaceOnUse" x1="1780.0858" y1="1275.2888" x2="1780.0858" y2="1604.6248">
			<stop  offset="0" style="stop-color:#FFFDFF;stop-opacity:0"/>
			<stop  offset="1" style="stop-color:#FFFFFF"/>
			<a:midPointStop  offset="0" style="stop-color:#FFFDFF;stop-opacity:0"/>
			<a:midPointStop  offset="0.5" style="stop-color:#FFFDFF;stop-opacity:0"/>
			<a:midPointStop  offset="1" style="stop-color:#FFFFFF"/>
		</linearGradient>
		<rect x="1761.2" y="1643.8" class="st61" width="37.8" height="205.6"/>
		<linearGradient id="SVGID_54_" gradientUnits="userSpaceOnUse" x1="1780.0858" y1="1687.2216" x2="1780.0858" y2="1849.6643">
			<stop  offset="0" style="stop-color:#ED5000;stop-opacity:0"/>
			<stop  offset="1" style="stop-color:#FBB040"/>
			<a:midPointStop  offset="0" style="stop-color:#ED5000;stop-opacity:0"/>
			<a:midPointStop  offset="0.5" style="stop-color:#ED5000;stop-opacity:0"/>
			<a:midPointStop  offset="1" style="stop-color:#FBB040"/>
		</linearGradient>
		<rect x="1761.2" y="1685.4" class="st62" width="37.8" height="164"/>
	</g>
	<g>
		<g>
			<path class="st63" d="M781.6,777.6c39.5-38.9,45.1-43.4,49.4-56.8c17.3-53.9-24.5-127.7-79.4-145.9c-2.9-0.9-39.6-12.7-53.7,3.2
				c-11.9,13.5,5.6,32.3-2.7,58.4c-7.8,24.4-29,26.3-68.3,58.3c-32.4,26.4-52.5,42.8-57.1,65.9c-9.6,47.6,48.1,116.6,99.1,114.7
				C687.3,874.7,692.3,865.4,781.6,777.6z"/>
			<g>
				<linearGradient id="SVGID_55_" gradientUnits="userSpaceOnUse" x1="628.5938" y1="830.4979" x2="817.7862" y2="830.4979">
					<stop  offset="0" style="stop-color:#FFA9A8"/>
					<stop  offset="1" style="stop-color:#E86767"/>
					<a:midPointStop  offset="0" style="stop-color:#FFA9A8"/>
					<a:midPointStop  offset="0.5" style="stop-color:#FFA9A8"/>
					<a:midPointStop  offset="1" style="stop-color:#E86767"/>
				</linearGradient>
				<path class="st64" d="M673.9,882.8c0,0,42,47.6,106.1,31.9c57.3-14.1,42.7-145.7,0.7-166.7c-14-7-39.4-6.4-58.6,2.8
					c-11.3,5.4-14.4,11.1-33.1,19.6c-17.2,7.9-22.6,6.8-27.3,12.3c-5.8,6.9-8.3,21.8,9.8,57.9c-13.1-9.2-27.1-11.2-35.7-5.1
					c-1.4,1-4.9,4.4-6.4,8.9C624.1,860.7,641.1,877.2,673.9,882.8z"/>
			</g>
		</g>
		<g>
			<g>
				<path class="st65" d="M753.8,782c3.1-1.4,4.4-5,3-8.1c-0.9-2-10.3-19.8-12.4-20c1.2-1.1,2.5-2.1,4-2.8
					c7.1-3.2,23,16.4,26.2,23.5c3.2,7.1,0.1,15.5-7,18.7c-7.1,3.2-15.5,0.1-18.7-7c-0.7-1.6-1.1-3.2-1.2-4.8
					C749.6,782.6,751.8,782.9,753.8,782z"/>
				<g>
					<g>
						<path class="st65" d="M765.2,726.7l-1.2-9c-1.7,0.2-22.9,5.6-46.6,19.5l4.6,7.8C744.9,731.5,765,726.7,765.2,726.7z"/>
					</g>
				</g>
			</g>
			<g>
				<g>
					<g>
						<path class="st65" d="M665.6,822.2c3.1-1.4,4.4-5,3-8.1c-0.9-2-10.3-19.8-12.4-20c1.2-1.1,2.5-2.1,4-2.8
							c7.1-3.2,23,16.4,26.2,23.5c3.2,7.1,0.1,15.5-7,18.7c-7.1,3.2-15.5,0.1-18.7-7c-0.7-1.6-1.1-3.2-1.2-4.8
							C661.4,822.8,663.6,823.1,665.6,822.2z"/>
					</g>
				</g>
				<g>
					<g>
						<path class="st65" d="M631,787.8c0.1-0.1,22.7-13.3,48-21.9l-8.7-7.3c-26,8.8-44,21.3-45.3,22.4l6.2,6.6l-3.1-3.3L631,787.8z"
							/>
					</g>
				</g>
			</g>
			<path class="st66" d="M579.8,784"/>
			
				<linearGradient id="SVGID_56_" gradientUnits="userSpaceOnUse" x1="1226.7085" y1="813.5834" x2="1226.7085" y2="707.1202" gradientTransform="matrix(-0.9947 0.4534 0.4148 0.9099 1605.6421 -509.4549)">
				<stop  offset="0" style="stop-color:#5D0CA5"/>
				<stop  offset="1" style="stop-color:#9F20FF"/>
				<a:midPointStop  offset="0" style="stop-color:#5D0CA5"/>
				<a:midPointStop  offset="0.5" style="stop-color:#5D0CA5"/>
				<a:midPointStop  offset="1" style="stop-color:#9F20FF"/>
			</linearGradient>
			<path class="st67" d="M684.2,853.4l114.3-52.1c29.2-13.3,43.1-45.8,30.9-72.6v0c-12.2-26.8-45.8-37.6-75-24.3L640,756.5
				c-29.2,13.3-43.1,45.8-30.9,72.6l0,0C621.3,855.9,654.9,866.7,684.2,853.4z"/>
			
				<linearGradient id="SVGID_57_" gradientUnits="userSpaceOnUse" x1="1209.8148" y1="810.9781" x2="1209.8148" y2="736.4731" gradientTransform="matrix(-1.054 0.4805 0.4148 0.9099 1678.6323 -542.7259)">
				<stop  offset="0" style="stop-color:#D6BBF2"/>
				<stop  offset="1" style="stop-color:#FFFFFF"/>
				<a:midPointStop  offset="0" style="stop-color:#D6BBF2"/>
				<a:midPointStop  offset="0.5" style="stop-color:#D6BBF2"/>
				<a:midPointStop  offset="1" style="stop-color:#FFFFFF"/>
			</linearGradient>
			<path class="st68" d="M710.3,824l84.7-38.6c21.7-9.9,32.3-33.1,23.8-51.8l0,0c-8.5-18.7-33-25.9-54.7-16l-84.7,38.6
				c-21.7,9.9-32.3,33.1-23.8,51.8l0,0C664.1,826.7,688.6,833.9,710.3,824z"/>
			
				<linearGradient id="SVGID_58_" gradientUnits="userSpaceOnUse" x1="615.1381" y1="812.5346" x2="703.6508" y2="942.8816" gradientTransform="matrix(1 -2.696153e-003 2.696153e-003 1 -66.1578 -87.2908)">
				<stop  offset="0" style="stop-color:#5D0CA5"/>
				<stop  offset="1" style="stop-color:#9F20FF"/>
				<a:midPointStop  offset="0" style="stop-color:#5D0CA5"/>
				<a:midPointStop  offset="0.5" style="stop-color:#5D0CA5"/>
				<a:midPointStop  offset="1" style="stop-color:#9F20FF"/>
			</linearGradient>
			<path class="st69" d="M642,872.7L642,872.7c5.7-2.6,8.2-9.3,5.6-14.9l-34.8-76.4c-2.6-5.7-9.3-8.1-15-5.5h0
				c-5.7,2.6-8.2,9.3-5.6,14.9l34.9,76.4C629.6,872.7,636.3,875.2,642,872.7z"/>
			
				<linearGradient id="SVGID_59_" gradientUnits="userSpaceOnUse" x1="851.6285" y1="846.103" x2="851.6285" y2="763.7256" gradientTransform="matrix(0.9099 -0.4148 0.4148 0.9099 -510.537 455.1589)">
				<stop  offset="0" style="stop-color:#D6BBF2"/>
				<stop  offset="1" style="stop-color:#FFFFFF"/>
				<a:midPointStop  offset="0" style="stop-color:#D6BBF2"/>
				<a:midPointStop  offset="0.5" style="stop-color:#D6BBF2"/>
				<a:midPointStop  offset="1" style="stop-color:#FFFFFF"/>
			</linearGradient>
			<path class="st70" d="M610.1,874.2l16.7-7.6l-34.2-75l-16.7,7.6c-3.5,1.6-5,5.7-3.4,9.1l28.4,62.4
				C602.6,874.3,606.6,875.8,610.1,874.2z"/>
		</g>
	</g>
</g>
</svg>
